<?xml version="1.0" standalone="no"?>
<!DOCTYPE svg PUBLIC "-//W3C//DTD SVG 20010904//EN"
 "http://www.w3.org/TR/2001/REC-SVG-20010904/DTD/svg10.dtd">
<svg version="1.0" xmlns="http://www.w3.org/2000/svg"
 width="900.000000pt" height="900.000000pt" viewBox="0 0 900.000000 900.000000"
 preserveAspectRatio="xMidYMid meet">
<metadata>
Created by potrace 1.11, written by Peter Selinger 2001-2013
</metadata>
<g transform="translate(0.000000,900.000000) scale(0.100000,-0.100000)"
fill="#000000" stroke="none">
<path d="M3467 5788 c-16 -12 -17 -95 -15 -1578 l3 -1565 357 -3 358 -2 2 537
3 538 255 6 c320 8 435 24 618 85 72 24 205 88 259 125 274 186 415 416 453
741 22 185 -12 429 -82 583 -136 299 -392 464 -818 526 -45 7 -332 13 -725 16
-530 4 -653 2 -668 -9z m1135 -562 c119 -17 207 -56 279 -123 90 -84 119 -170
119 -350 0 -122 -6 -150 -49 -247 -32 -71 -98 -134 -185 -175 -99 -46 -152
-54 -381 -55 l-210 -1 -3 483 -2 482 167 0 c93 0 212 -7 265 -14z"/>
</g>
</svg>
